<svg width="152" height="43" viewBox="0 0 152 43" fill="none" xmlns="http://www.w3.org/2000/svg">
<path d="M12.654 20H9.994L3.971 10.899V20H1.311V6.719H3.971L9.994 15.839V6.719H12.654V20ZM18.3987 14.699C18.3987 13.635 18.6077 12.6913 19.0257 11.868C19.4563 11.0447 20.0327 10.4113 20.7547 9.968C21.4893 9.52467 22.3063 9.303 23.2057 9.303C23.991 9.303 24.675 9.46133 25.2577 9.778C25.853 10.0947 26.328 10.4937 26.6827 10.975V9.474H29.3617V20H26.6827V18.461C26.3407 18.955 25.8657 19.3667 25.2577 19.696C24.6623 20.0127 23.972 20.171 23.1867 20.171C22.3 20.171 21.4893 19.943 20.7547 19.487C20.0327 19.031 19.4563 18.3913 19.0257 17.568C18.6077 16.732 18.3987 15.7757 18.3987 14.699ZM26.6827 14.737C26.6827 14.091 26.556 13.54 26.3027 13.084C26.0493 12.6153 25.7073 12.2607 25.2767 12.02C24.846 11.7667 24.3837 11.64 23.8897 11.64C23.3957 11.64 22.9397 11.7603 22.5217 12.001C22.1037 12.2417 21.7617 12.5963 21.4957 13.065C21.2423 13.521 21.1157 14.0657 21.1157 14.699C21.1157 15.3323 21.2423 15.8897 21.4957 16.371C21.7617 16.8397 22.1037 17.2007 22.5217 17.454C22.9523 17.7073 23.4083 17.834 23.8897 17.834C24.3837 17.834 24.846 17.7137 25.2767 17.473C25.7073 17.2197 26.0493 16.865 26.3027 16.409C26.556 15.9403 26.6827 15.383 26.6827 14.737ZM38.4196 10.994C38.7616 10.5127 39.2303 10.1137 39.8256 9.797C40.4336 9.46767 41.124 9.303 41.8966 9.303C42.796 9.303 43.6066 9.52467 44.3286 9.968C45.0633 10.4113 45.6396 11.0447 46.0576 11.868C46.4883 12.6787 46.7036 13.6223 46.7036 14.699C46.7036 15.7757 46.4883 16.732 46.0576 17.568C45.6396 18.3913 45.0633 19.031 44.3286 19.487C43.6066 19.943 42.796 20.171 41.8966 20.171C41.124 20.171 40.44 20.0127 39.8446 19.696C39.262 19.3793 38.787 18.9803 38.4196 18.499V25.016H35.7596V9.474H38.4196V10.994ZM43.9866 14.699C43.9866 14.0657 43.8536 13.521 43.5876 13.065C43.3343 12.5963 42.9923 12.2417 42.5616 12.001C42.1436 11.7603 41.6876 11.64 41.1936 11.64C40.7123 11.64 40.2563 11.7667 39.8256 12.02C39.4076 12.2607 39.0656 12.6153 38.7996 13.084C38.5463 13.5527 38.4196 14.1037 38.4196 14.737C38.4196 15.3703 38.5463 15.9213 38.7996 16.39C39.0656 16.8587 39.4076 17.2197 39.8256 17.473C40.2563 17.7137 40.7123 17.834 41.1936 17.834C41.6876 17.834 42.1436 17.7073 42.5616 17.454C42.9923 17.2007 43.3343 16.8397 43.5876 16.371C43.8536 15.9023 43.9866 15.345 43.9866 14.699ZM68.2879 13.198C69.0353 13.3373 69.6496 13.711 70.1309 14.319C70.6123 14.927 70.8529 15.6237 70.8529 16.409C70.8529 17.1183 70.6756 17.7453 70.3209 18.29C69.9789 18.822 69.4786 19.24 68.8199 19.544C68.1613 19.848 67.3823 20 66.4829 20H60.7639V6.738H66.2359C67.1353 6.738 67.9079 6.88367 68.5539 7.175C69.2126 7.46633 69.7066 7.87167 70.0359 8.391C70.3779 8.91033 70.5489 9.49933 70.5489 10.158C70.5489 10.9307 70.3399 11.5767 69.9219 12.096C69.5166 12.6153 68.9719 12.9827 68.2879 13.198ZM63.4239 12.21H65.8559C66.4893 12.21 66.9769 12.0707 67.3189 11.792C67.6609 11.5007 67.8319 11.089 67.8319 10.557C67.8319 10.025 67.6609 9.61333 67.3189 9.322C66.9769 9.03067 66.4893 8.885 65.8559 8.885H63.4239V12.21ZM66.1029 17.834C66.7489 17.834 67.2493 17.682 67.6039 17.378C67.9713 17.074 68.1549 16.6433 68.1549 16.086C68.1549 15.516 67.9649 15.0727 67.5849 14.756C67.2049 14.4267 66.6919 14.262 66.0459 14.262H63.4239V17.834H66.1029ZM81.4469 20.171C80.4336 20.171 79.5216 19.9493 78.7109 19.506C77.9002 19.05 77.2606 18.4103 76.7919 17.587C76.3359 16.7637 76.1079 15.8137 76.1079 14.737C76.1079 13.6603 76.3422 12.7103 76.8109 11.887C77.2922 11.0637 77.9446 10.4303 78.7679 9.987C79.5912 9.531 80.5096 9.303 81.5229 9.303C82.5362 9.303 83.4546 9.531 84.2779 9.987C85.1012 10.4303 85.7472 11.0637 86.2159 11.887C86.6972 12.7103 86.9379 13.6603 86.9379 14.737C86.9379 15.8137 86.6909 16.7637 86.1969 17.587C85.7156 18.4103 85.0569 19.05 84.2209 19.506C83.3976 19.9493 82.4729 20.171 81.4469 20.171ZM81.4469 17.853C81.9282 17.853 82.3779 17.739 82.7959 17.511C83.2266 17.2703 83.5686 16.9157 83.8219 16.447C84.0752 15.9783 84.2019 15.4083 84.2019 14.737C84.2019 13.7363 83.9359 12.97 83.4039 12.438C82.8846 11.8933 82.2449 11.621 81.4849 11.621C80.7249 11.621 80.0852 11.8933 79.5659 12.438C79.0592 12.97 78.8059 13.7363 78.8059 14.737C78.8059 15.7377 79.0529 16.5103 79.5469 17.055C80.0536 17.587 80.6869 17.853 81.4469 17.853ZM95.3491 5.94V20H92.6891V5.94H95.3491ZM104.874 11.659V16.751C104.874 17.1057 104.957 17.3653 105.121 17.53C105.299 17.682 105.59 17.758 105.995 17.758H107.23V20H105.558C103.316 20 102.195 18.9107 102.195 16.732V11.659H100.941V9.474H102.195V6.871H104.874V9.474H107.23V11.659H104.874ZM115.603 11.108C115.945 10.5507 116.389 10.1137 116.933 9.797C117.491 9.48033 118.124 9.322 118.833 9.322V12.115H118.13C117.294 12.115 116.661 12.3113 116.23 12.704C115.812 13.0967 115.603 13.7807 115.603 14.756V20H112.943V9.474H115.603V11.108ZM129.099 20.171C128.086 20.171 127.174 19.9493 126.363 19.506C125.552 19.05 124.913 18.4103 124.444 17.587C123.988 16.7637 123.76 15.8137 123.76 14.737C123.76 13.6603 123.994 12.7103 124.463 11.887C124.944 11.0637 125.597 10.4303 126.42 9.987C127.243 9.531 128.162 9.303 129.175 9.303C130.188 9.303 131.107 9.531 131.93 9.987C132.753 10.4303 133.399 11.0637 133.868 11.887C134.349 12.7103 134.59 13.6603 134.59 14.737C134.59 15.8137 134.343 16.7637 133.849 17.587C133.368 18.4103 132.709 19.05 131.873 19.506C131.05 19.9493 130.125 20.171 129.099 20.171ZM129.099 17.853C129.58 17.853 130.03 17.739 130.448 17.511C130.879 17.2703 131.221 16.9157 131.474 16.447C131.727 15.9783 131.854 15.4083 131.854 14.737C131.854 13.7363 131.588 12.97 131.056 12.438C130.537 11.8933 129.897 11.621 129.137 11.621C128.377 11.621 127.737 11.8933 127.218 12.438C126.711 12.97 126.458 13.7363 126.458 14.737C126.458 15.7377 126.705 16.5103 127.199 17.055C127.706 17.587 128.339 17.853 129.099 17.853ZM146.174 9.322C147.428 9.322 148.442 9.721 149.214 10.519C149.987 11.3043 150.373 12.4063 150.373 13.825V20H147.713V14.186C147.713 13.35 147.504 12.7103 147.086 12.267C146.668 11.811 146.098 11.583 145.376 11.583C144.642 11.583 144.059 11.811 143.628 12.267C143.21 12.7103 143.001 13.35 143.001 14.186V20H140.341V9.474H143.001V10.785C143.356 10.329 143.806 9.97433 144.35 9.721C144.908 9.455 145.516 9.322 146.174 9.322Z" fill="#00999E"/>
<path d="M4.9405e-06 27.9705L152.003 28.1176" stroke="#00999E"/>
<path d="M14.0686 36.9181C14.0686 36.6284 14.0458 36.4005 14.0002 36.2345C13.9546 36.0685 13.8521 35.9464 13.6926 35.8683C13.5331 35.7869 13.2857 35.7348 12.9504 35.712C12.6151 35.686 12.1561 35.6681 11.5734 35.6583L8.8586 35.6193C8.18802 35.6095 7.64929 35.5688 7.24239 35.4972C6.83548 35.4256 6.52787 35.3133 6.31953 35.1603C6.1112 35.004 5.97123 34.7957 5.89961 34.5353C5.83125 34.2749 5.79707 33.9493 5.79707 33.5587C5.79707 33.1323 5.84427 32.7807 5.93867 32.504C6.03633 32.2273 6.21048 32.0109 6.46114 31.8546C6.71504 31.6984 7.07312 31.5893 7.53535 31.5275C7.99759 31.4624 8.59492 31.4298 9.32735 31.4298H11.4172C12.0813 31.4298 12.6346 31.451 13.0773 31.4933C13.5201 31.5356 13.8716 31.6333 14.132 31.7863C14.3925 31.9392 14.578 32.1769 14.6887 32.4991C14.8026 32.8214 14.8596 33.2641 14.8596 33.8273H13.9221C13.9221 33.3911 13.8798 33.0623 13.7951 32.8409C13.7137 32.6163 13.577 32.4633 13.385 32.382C13.1962 32.3006 12.9406 32.2566 12.6184 32.2501C12.2961 32.2436 11.8957 32.2404 11.4172 32.2404H9.37617C8.79349 32.2404 8.32637 32.2517 7.97481 32.2745C7.6265 32.2973 7.36283 32.3494 7.18379 32.4308C7.00476 32.5122 6.88431 32.6424 6.82246 32.8214C6.76387 33.0004 6.73457 33.2462 6.73457 33.5587C6.73457 33.8224 6.75573 34.034 6.79805 34.1935C6.84037 34.353 6.93477 34.4751 7.08125 34.5597C7.23099 34.6411 7.46048 34.698 7.76973 34.7306C8.07897 34.7599 8.50052 34.7778 9.03438 34.7843L11.9445 34.8234C12.6281 34.8331 13.1734 34.8738 13.5803 34.9454C13.9904 35.0138 14.2964 35.1261 14.4982 35.2823C14.7033 35.4386 14.8384 35.6502 14.9035 35.9171C14.9719 36.1808 15.0061 36.5144 15.0061 36.9181C15.0061 37.3575 14.9637 37.727 14.8791 38.0265C14.7977 38.3227 14.6382 38.5603 14.4006 38.7394C14.163 38.9184 13.8195 39.047 13.3703 39.1251C12.9211 39.2032 12.3303 39.2423 11.5979 39.2423H9.3127C8.64538 39.2423 8.08548 39.213 7.63301 39.1544C7.18054 39.0958 6.81921 38.9786 6.54903 38.8029C6.2821 38.6238 6.09004 38.3585 5.97285 38.007C5.85567 37.6554 5.79707 37.1866 5.79707 36.6007H6.73457C6.73457 37.0597 6.77201 37.4145 6.84688 37.6652C6.92175 37.9158 7.05196 38.0965 7.2375 38.2072C7.42631 38.3146 7.68835 38.3797 8.02364 38.4025C8.36218 38.422 8.79187 38.4318 9.3127 38.4318H11.549C12.1317 38.4318 12.5923 38.4139 12.9309 38.3781C13.2694 38.339 13.5201 38.2674 13.6828 38.1632C13.8456 38.0558 13.9497 37.9028 13.9953 37.7042C14.0441 37.5057 14.0686 37.2436 14.0686 36.9181ZM19.4178 39.1935C18.7895 39.1935 18.2557 39.1609 17.8162 39.0958C17.3768 39.034 17.0219 38.9054 16.7518 38.7101C16.4816 38.5115 16.2846 38.2153 16.1609 37.8214C16.0372 37.4275 15.9754 36.9018 15.9754 36.2443C15.9754 35.6062 16.0372 35.0952 16.1609 34.7111C16.2846 34.3269 16.4816 34.0372 16.7518 33.8419C17.0219 33.6466 17.3768 33.5164 17.8162 33.4513C18.2557 33.3862 18.7895 33.3536 19.4178 33.3536C20.0493 33.3536 20.5831 33.3862 21.0193 33.4513C21.4588 33.5164 21.8136 33.6466 22.0838 33.8419C22.354 34.0372 22.5509 34.3269 22.6746 34.7111C22.7983 35.0952 22.8602 35.6062 22.8602 36.2443C22.8602 36.9018 22.7983 37.4275 22.6746 37.8214C22.5509 38.2153 22.354 38.5115 22.0838 38.7101C21.8136 38.9054 21.4588 39.034 21.0193 39.0958C20.5831 39.1609 20.0493 39.1935 19.4178 39.1935ZM21.9227 36.2443C21.9227 35.7788 21.8982 35.406 21.8494 35.1261C21.8038 34.8462 21.7013 34.6362 21.5418 34.4962C21.3823 34.353 21.1333 34.257 20.7947 34.2081C20.4594 34.1593 20.0005 34.1349 19.4178 34.1349C18.8383 34.1349 18.3794 34.1593 18.0408 34.2081C17.7023 34.257 17.4533 34.353 17.2938 34.4962C17.1342 34.6362 17.0301 34.8462 16.9813 35.1261C16.9357 35.406 16.9129 35.7788 16.9129 36.2443C16.9129 36.726 16.9357 37.1118 16.9813 37.4015C17.0301 37.6912 17.1342 37.9093 17.2938 38.0558C17.4533 38.199 17.7023 38.295 18.0408 38.3439C18.3794 38.3894 18.8383 38.4122 19.4178 38.4122C20.0005 38.4122 20.4594 38.3894 20.7947 38.3439C21.1333 38.295 21.3823 38.199 21.5418 38.0558C21.7013 37.9093 21.8038 37.6912 21.8494 37.4015C21.8982 37.1118 21.9227 36.726 21.9227 36.2443ZM24.7914 39.0861V34.174H23.8539V33.4611H24.7914V33.2169C24.7914 32.6831 24.8777 32.2729 25.0502 31.9865C25.226 31.7 25.4978 31.5031 25.8656 31.3956C26.2367 31.2882 26.7136 31.2345 27.2963 31.2345H28.3852V31.9962H27.2914C26.8259 31.9962 26.4825 32.0255 26.2611 32.0841C26.0398 32.1427 25.8949 32.2599 25.8266 32.4357C25.7615 32.6082 25.7289 32.8686 25.7289 33.2169V33.4611H28.3852V34.174H25.7289V39.0861H24.7914ZM31.5127 39.0861C30.9398 39.0861 30.4808 39.0291 30.1357 38.9152C29.7907 38.798 29.54 38.5929 29.3838 38.2999C29.2308 38.0037 29.1543 37.5887 29.1543 37.0548V31.923H30.0918V33.4611H33.5537V34.2325H30.0918V37.0548C30.0918 37.4194 30.1244 37.6912 30.1895 37.8702C30.2578 38.0493 30.3929 38.1665 30.5947 38.2218C30.7998 38.2771 31.1058 38.3048 31.5127 38.3048C31.874 38.3048 32.1572 38.2934 32.3623 38.2706C32.5706 38.2478 32.7236 38.1876 32.8213 38.09C32.9189 37.9891 32.9808 37.8247 33.0068 37.5968C33.0329 37.3689 33.0459 37.0483 33.0459 36.6349H33.876C33.876 37.1753 33.8418 37.6082 33.7734 37.9337C33.7083 38.2592 33.5895 38.505 33.417 38.671C33.2477 38.837 33.0085 38.9477 32.6992 39.0031C32.3932 39.0584 31.9977 39.0861 31.5127 39.0861ZM37.023 39.0861L34.8648 33.4611H35.9293L37.6432 38.3292H37.6529L39.523 33.4611H40.4605L42.3111 38.3292H42.3209L44.0543 33.4611H45.1188L42.9605 39.0861H41.7105L39.9967 34.5304H39.9869L38.273 39.0861H37.023ZM48.6418 39.1935C47.968 39.1935 47.4113 39.1577 46.9719 39.0861C46.5357 39.0177 46.2102 38.8647 45.9953 38.6271C45.7837 38.3894 45.6779 38.02 45.6779 37.5187C45.6779 37.0076 45.7772 36.6333 45.9758 36.3956C46.1776 36.1547 46.495 35.9985 46.9279 35.9269C47.3641 35.8553 47.9354 35.8195 48.6418 35.8195C49.2147 35.8195 49.6949 35.8325 50.0822 35.8585C50.4696 35.8846 50.8163 35.9301 51.1223 35.9952C51.1158 35.5623 51.0865 35.2221 51.0344 34.9747C50.9823 34.7241 50.8846 34.5385 50.7414 34.4181C50.5982 34.2976 50.3882 34.2212 50.1115 34.1886C49.8381 34.1528 49.4735 34.1349 49.0178 34.1349C48.4969 34.1349 48.0884 34.1463 47.7922 34.1691C47.4992 34.1919 47.286 34.2325 47.1525 34.2911C47.0191 34.3497 46.9344 34.4344 46.8986 34.545C46.8661 34.6557 46.8498 34.799 46.8498 34.9747H45.9123C45.9123 34.6232 45.9595 34.34 46.0539 34.1251C46.1516 33.9103 46.316 33.7475 46.5471 33.6368C46.7782 33.5262 47.0939 33.4513 47.4943 33.4122C47.898 33.3732 48.4058 33.3536 49.0178 33.3536C49.6753 33.3536 50.2043 33.396 50.6047 33.4806C51.0083 33.5652 51.3143 33.7182 51.5227 33.9396C51.7342 34.1577 51.8758 34.4637 51.9475 34.8575C52.0223 35.2514 52.0598 35.7592 52.0598 36.381V39.0861H51.1223V38.7003C51.0116 38.8175 50.8586 38.9119 50.6633 38.9835C50.468 39.0551 50.2076 39.1072 49.882 39.1398C49.5598 39.1756 49.1464 39.1935 48.6418 39.1935ZM48.6418 38.4318C49.1984 38.4318 49.6428 38.4253 49.9748 38.4122C50.3068 38.3992 50.5542 38.3634 50.717 38.3048C50.883 38.2462 50.9921 38.1518 51.0441 38.0216C51.0962 37.8914 51.1223 37.7091 51.1223 37.4747V36.6105L48.6418 36.5812C48.2023 36.5747 47.8475 36.5812 47.5773 36.6007C47.3104 36.617 47.107 36.656 46.967 36.7179C46.827 36.7765 46.7326 36.8709 46.6838 37.0011C46.6382 37.1281 46.6154 37.3006 46.6154 37.5187C46.6154 37.7303 46.6382 37.8979 46.6838 38.0216C46.7326 38.1453 46.827 38.2365 46.967 38.295C47.107 38.3536 47.3104 38.3911 47.5773 38.4073C47.8475 38.4236 48.2023 38.4318 48.6418 38.4318ZM53.2879 39.0861V33.4611H54.2254V34.2374C54.3296 34.0714 54.4337 33.9331 54.5379 33.8224C54.6453 33.7117 54.7837 33.6238 54.9529 33.5587C55.1255 33.4936 55.3582 33.448 55.6512 33.422C55.9441 33.3927 56.3299 33.3781 56.8084 33.3781V34.1642C56.1639 34.1642 55.6642 34.187 55.3094 34.2325C54.9578 34.2781 54.7055 34.3562 54.5525 34.4669C54.3995 34.5743 54.3068 34.7241 54.2742 34.9161C54.2417 35.1082 54.2254 35.3523 54.2254 35.6486V39.0861H53.2879ZM64.3451 37.4161C64.3451 37.8361 64.2816 38.1665 64.1547 38.4073C64.031 38.6482 63.8406 38.824 63.5834 38.9347C63.3262 39.0454 62.9975 39.1154 62.5971 39.1447C62.1999 39.1772 61.7263 39.1935 61.1762 39.1935C60.5479 39.1935 60.0141 39.1609 59.5746 39.0958C59.1384 39.034 58.7852 38.9054 58.515 38.7101C58.2481 38.5115 58.0528 38.2153 57.9291 37.8214C57.8087 37.4275 57.7484 36.9018 57.7484 36.2443C57.7484 35.6062 57.807 35.0952 57.9242 34.7111C58.0447 34.3269 58.2383 34.0372 58.5053 33.8419C58.7722 33.6466 59.1221 33.5164 59.5551 33.4513C59.9913 33.3862 60.5235 33.3536 61.1518 33.3536C61.8712 33.3536 62.4669 33.4041 62.9389 33.505C63.4109 33.6059 63.7624 33.798 63.9936 34.0812C64.2279 34.3644 64.3451 34.7794 64.3451 35.3263V36.5323H58.6908C58.6941 36.949 58.7234 37.2827 58.7787 37.5333C58.8341 37.784 58.9447 37.9728 59.1107 38.0997C59.2768 38.2267 59.5242 38.3113 59.8529 38.3536C60.185 38.3927 60.626 38.4122 61.1762 38.4122C61.671 38.4122 62.0697 38.4025 62.3725 38.3829C62.6785 38.3634 62.9096 38.3211 63.0658 38.256C63.2253 38.1876 63.3327 38.0867 63.3881 37.9532C63.4434 37.8198 63.4711 37.6407 63.4711 37.4161H64.3451ZM61.1518 34.1349C60.6212 34.1349 60.1931 34.1544 59.8676 34.1935C59.5453 34.2325 59.2995 34.309 59.1303 34.423C58.961 34.5337 58.8454 34.6997 58.7836 34.921C58.725 35.1424 58.6941 35.4337 58.6908 35.795H63.4467V35.3263C63.4467 35.0919 63.419 34.8982 63.3637 34.7452C63.3116 34.589 63.2074 34.4669 63.0512 34.379C62.8949 34.2879 62.6638 34.2244 62.3578 34.1886C62.0551 34.1528 61.6531 34.1349 61.1518 34.1349ZM68.5152 39.0861V31.5861H75.8785V32.3673H69.4527V34.8673H75.61V35.6486H69.4527V38.3048H76.0152V39.0861H68.5152ZM76.8723 39.0861V33.4611H77.8098V34.2081C77.9497 34.0193 78.1223 33.8615 78.3273 33.7345C78.5357 33.6075 78.8124 33.5131 79.1574 33.4513C79.5057 33.3862 79.9615 33.3536 80.5246 33.3536C81.2603 33.3536 81.8397 33.4253 82.2629 33.5685C82.6893 33.7117 82.9921 33.9672 83.1711 34.3351C83.3501 34.7029 83.4397 35.2238 83.4397 35.8976V39.0861H82.4973V35.8976C82.4973 35.5135 82.4647 35.2042 82.3996 34.9698C82.3345 34.7355 82.2222 34.5581 82.0627 34.4376C81.9064 34.3172 81.69 34.2374 81.4133 34.1984C81.1366 34.156 80.785 34.1349 80.3586 34.1349C79.7076 34.1349 79.1965 34.1886 78.8254 34.296C78.4543 34.4034 78.1923 34.5727 78.0393 34.8038C77.8863 35.0317 77.8098 35.3295 77.8098 35.6974V39.0861H76.8723ZM88.0272 41.2296C87.5291 41.2296 87.075 41.2166 86.6648 41.1906C86.2579 41.1678 85.908 41.1092 85.615 41.0148C85.3221 40.9236 85.0958 40.7771 84.9363 40.5753C84.7768 40.3767 84.6971 40.1033 84.6971 39.755H85.6346C85.6346 39.9829 85.7225 40.1456 85.8982 40.2433C86.0773 40.3409 86.3442 40.3995 86.699 40.4191C87.0538 40.4386 87.4966 40.4484 88.0272 40.4484C88.421 40.4484 88.7579 40.4353 89.0379 40.4093C89.3178 40.3865 89.5457 40.3165 89.7215 40.1993C89.9005 40.0822 90.0307 39.8852 90.1121 39.6085C90.1967 39.3351 90.2391 38.9493 90.2391 38.4513V38.3195C90.0112 38.6124 89.6971 38.8061 89.2967 38.9005C88.8995 38.9949 88.4064 39.0421 87.8172 39.0421C87.2085 39.0421 86.6893 39.0079 86.2596 38.9396C85.8299 38.868 85.48 38.7345 85.2098 38.5392C84.9428 38.3439 84.7475 38.0607 84.6238 37.6896C84.5001 37.3185 84.4383 36.8335 84.4383 36.2345C84.4383 35.5965 84.5001 35.0854 84.6238 34.7013C84.7475 34.3172 84.9428 34.0291 85.2098 33.837C85.48 33.6417 85.8299 33.5131 86.2596 33.4513C86.6893 33.3862 87.2085 33.3536 87.8172 33.3536C88.4064 33.3536 88.8995 33.3976 89.2967 33.4855C89.6971 33.5701 90.0112 33.7605 90.2391 34.0568V33.4611H91.1766V38.4904C91.1635 39.1088 91.0854 39.6004 90.9422 39.965C90.799 40.3328 90.5939 40.6062 90.327 40.7853C90.0633 40.9676 89.7378 41.0864 89.3504 41.1417C88.9663 41.2003 88.5252 41.2296 88.0272 41.2296ZM90.2391 36.2345C90.2391 35.769 90.2098 35.3979 90.1512 35.1212C90.0958 34.8413 89.9852 34.6313 89.8191 34.4913C89.6564 34.3481 89.4139 34.2537 89.0916 34.2081C88.7726 34.1593 88.3478 34.1349 87.8172 34.1349C87.2573 34.1349 86.813 34.1593 86.4842 34.2081C86.1587 34.2537 85.9162 34.3481 85.7566 34.4913C85.5971 34.6313 85.493 34.8413 85.4441 35.1212C85.3986 35.3979 85.3758 35.769 85.3758 36.2345C85.3758 36.6577 85.3986 37.0027 85.4441 37.2697C85.493 37.5366 85.5955 37.7417 85.7518 37.8849C85.9113 38.0281 86.1554 38.1274 86.4842 38.1827C86.813 38.2348 87.2573 38.2609 87.8172 38.2609C88.3478 38.2609 88.7726 38.2348 89.0916 38.1827C89.4139 38.1274 89.6564 38.0281 89.8191 37.8849C89.9852 37.7417 90.0958 37.5366 90.1512 37.2697C90.2098 37.0027 90.2391 36.6577 90.2391 36.2345ZM92.3461 39.0861V33.7736H93.2836V39.0861H92.3461ZM92.3461 32.5236V31.5861H93.2836V32.5236H92.3461ZM94.4531 39.0861V33.4611H95.3906V34.2081C95.5306 34.0193 95.7031 33.8615 95.9082 33.7345C96.1165 33.6075 96.3932 33.5131 96.7383 33.4513C97.0866 33.3862 97.5423 33.3536 98.1055 33.3536C98.8411 33.3536 99.4206 33.4253 99.8438 33.5685C100.27 33.7117 100.573 33.9672 100.752 34.3351C100.931 34.7029 101.021 35.2238 101.021 35.8976V39.0861H100.078V35.8976C100.078 35.5135 100.046 35.2042 99.9805 34.9698C99.9154 34.7355 99.8031 34.5581 99.6436 34.4376C99.4873 34.3172 99.2708 34.2374 98.9941 34.1984C98.7174 34.156 98.3659 34.1349 97.9395 34.1349C97.2884 34.1349 96.7773 34.1886 96.4062 34.296C96.0352 34.4034 95.7731 34.5727 95.6201 34.8038C95.4671 35.0317 95.3906 35.3295 95.3906 35.6974V39.0861H94.4531ZM108.596 37.4161C108.596 37.8361 108.533 38.1665 108.406 38.4073C108.282 38.6482 108.092 38.824 107.835 38.9347C107.577 39.0454 107.249 39.1154 106.848 39.1447C106.451 39.1772 105.977 39.1935 105.427 39.1935C104.799 39.1935 104.265 39.1609 103.826 39.0958C103.39 39.034 103.036 38.9054 102.766 38.7101C102.499 38.5115 102.304 38.2153 102.18 37.8214C102.06 37.4275 102 36.9018 102 36.2443C102 35.6062 102.058 35.0952 102.175 34.7111C102.296 34.3269 102.49 34.0372 102.756 33.8419C103.023 33.6466 103.373 33.5164 103.806 33.4513C104.242 33.3862 104.775 33.3536 105.403 33.3536C106.122 33.3536 106.718 33.4041 107.19 33.505C107.662 33.6059 108.014 33.798 108.245 34.0812C108.479 34.3644 108.596 34.7794 108.596 35.3263V36.5323H102.942C102.945 36.949 102.975 37.2827 103.03 37.5333C103.085 37.784 103.196 37.9728 103.362 38.0997C103.528 38.2267 103.775 38.3113 104.104 38.3536C104.436 38.3927 104.877 38.4122 105.427 38.4122C105.922 38.4122 106.321 38.4025 106.624 38.3829C106.93 38.3634 107.161 38.3211 107.317 38.256C107.476 38.1876 107.584 38.0867 107.639 37.9532C107.695 37.8198 107.722 37.6407 107.722 37.4161H108.596ZM105.403 34.1349C104.872 34.1349 104.444 34.1544 104.119 34.1935C103.796 34.2325 103.551 34.309 103.381 34.423C103.212 34.5337 103.097 34.6997 103.035 34.921C102.976 35.1424 102.945 35.4337 102.942 35.795H107.698V35.3263C107.698 35.0919 107.67 34.8982 107.615 34.7452C107.563 34.589 107.459 34.4669 107.302 34.379C107.146 34.2879 106.915 34.2244 106.609 34.1886C106.306 34.1528 105.904 34.1349 105.403 34.1349ZM116.153 37.4161C116.153 37.8361 116.089 38.1665 115.962 38.4073C115.838 38.6482 115.648 38.824 115.391 38.9347C115.134 39.0454 114.805 39.1154 114.404 39.1447C114.007 39.1772 113.534 39.1935 112.984 39.1935C112.355 39.1935 111.821 39.1609 111.382 39.0958C110.946 39.034 110.593 38.9054 110.322 38.7101C110.056 38.5115 109.86 38.2153 109.737 37.8214C109.616 37.4275 109.556 36.9018 109.556 36.2443C109.556 35.6062 109.614 35.0952 109.732 34.7111C109.852 34.3269 110.046 34.0372 110.313 33.8419C110.58 33.6466 110.93 33.5164 111.363 33.4513C111.799 33.3862 112.331 33.3536 112.959 33.3536C113.679 33.3536 114.274 33.4041 114.746 33.505C115.218 33.6059 115.57 33.798 115.801 34.0812C116.035 34.3644 116.153 34.7794 116.153 35.3263V36.5323H110.498C110.502 36.949 110.531 37.2827 110.586 37.5333C110.641 37.784 110.752 37.9728 110.918 38.0997C111.084 38.2267 111.332 38.3113 111.66 38.3536C111.992 38.3927 112.433 38.4122 112.984 38.4122C113.478 38.4122 113.877 38.4025 114.18 38.3829C114.486 38.3634 114.717 38.3211 114.873 38.256C115.033 38.1876 115.14 38.0867 115.196 37.9532C115.251 37.8198 115.279 37.6407 115.279 37.4161H116.153ZM112.959 34.1349C112.429 34.1349 112.001 34.1544 111.675 34.1935C111.353 34.2325 111.107 34.309 110.938 34.423C110.768 34.5337 110.653 34.6997 110.591 34.921C110.532 35.1424 110.502 35.4337 110.498 35.795H115.254V35.3263C115.254 35.0919 115.226 34.8982 115.171 34.7452C115.119 34.589 115.015 34.4669 114.859 34.379C114.702 34.2879 114.471 34.2244 114.165 34.1886C113.863 34.1528 113.46 34.1349 112.959 34.1349ZM117.366 39.0861V33.4611H118.304V34.2374C118.408 34.0714 118.512 33.9331 118.616 33.8224C118.723 33.7117 118.862 33.6238 119.031 33.5587C119.204 33.4936 119.436 33.448 119.729 33.422C120.022 33.3927 120.408 33.3781 120.887 33.3781V34.1642C120.242 34.1642 119.742 34.187 119.388 34.2325C119.036 34.2781 118.784 34.3562 118.631 34.4669C118.478 34.5743 118.385 34.7241 118.352 34.9161C118.32 35.1082 118.304 35.3523 118.304 35.6486V39.0861H117.366ZM124.725 39.7111V31.2736H125.662V39.7111H124.725ZM136.878 35.2384C136.878 34.6655 136.859 34.1935 136.82 33.8224C136.78 33.4513 136.707 33.1583 136.6 32.9435C136.496 32.7286 136.343 32.5724 136.141 32.4747C135.942 32.3738 135.683 32.3103 135.364 32.2843C135.045 32.255 134.653 32.2404 134.188 32.2404H133.182C132.716 32.2404 132.324 32.255 132.005 32.2843C131.686 32.3103 131.426 32.3738 131.224 32.4747C131.025 32.5724 130.872 32.7286 130.765 32.9435C130.661 33.1583 130.589 33.4513 130.55 33.8224C130.511 34.1935 130.491 34.6655 130.491 35.2384V35.4337C130.491 35.9871 130.511 36.4461 130.55 36.8107C130.589 37.1753 130.661 37.4666 130.765 37.6847C130.872 37.9028 131.025 38.0656 131.224 38.173C131.426 38.2804 131.686 38.3504 132.005 38.3829C132.324 38.4155 132.716 38.4318 133.182 38.4318H134.188C134.653 38.4318 135.045 38.4155 135.364 38.3829C135.683 38.3504 135.942 38.2804 136.141 38.173C136.343 38.0656 136.496 37.9028 136.6 37.6847C136.707 37.4666 136.78 37.1753 136.82 36.8107C136.859 36.4461 136.878 35.9871 136.878 35.4337V35.2384ZM129.554 35.4337V35.2384C129.554 34.5743 129.586 34.0177 129.652 33.5685C129.717 33.116 129.829 32.7482 129.988 32.465C130.148 32.1818 130.364 31.9653 130.638 31.8156C130.915 31.6658 131.261 31.5649 131.678 31.5128C132.095 31.4575 132.596 31.4298 133.182 31.4298H134.188C134.774 31.4298 135.275 31.4575 135.692 31.5128C136.108 31.5649 136.453 31.6658 136.727 31.8156C137.003 31.9653 137.222 32.1818 137.381 32.465C137.541 32.7482 137.653 33.116 137.718 33.5685C137.783 34.0177 137.816 34.5743 137.816 35.2384V35.4337C137.816 36.2378 137.762 36.8904 137.654 37.3917C137.55 37.893 137.365 38.2771 137.098 38.5441C136.834 38.811 136.466 38.9933 135.994 39.0909C135.522 39.1919 134.92 39.2423 134.188 39.2423H133.182C132.449 39.2423 131.847 39.1919 131.375 39.0909C130.903 38.9933 130.534 38.811 130.267 38.5441C130.003 38.2771 129.818 37.893 129.71 37.3917C129.606 36.8904 129.554 36.2378 129.554 35.4337ZM146.27 33.5587C146.27 33.2462 146.239 33.0004 146.178 32.8214C146.119 32.6424 146 32.5122 145.821 32.4308C145.642 32.3494 145.377 32.2973 145.025 32.2745C144.677 32.2517 144.211 32.2404 143.629 32.2404H142.564C141.982 32.2404 141.514 32.2517 141.163 32.2745C140.815 32.2973 140.551 32.3494 140.372 32.4308C140.193 32.5122 140.072 32.6424 140.011 32.8214C139.952 33.0004 139.923 33.2462 139.923 33.5587C139.923 33.8224 139.944 34.0372 139.986 34.2032C140.028 34.366 140.123 34.4913 140.269 34.5792C140.419 34.6639 140.649 34.7225 140.958 34.755C141.267 34.7876 141.689 34.8038 142.222 34.8038H143.971C144.504 34.8038 144.926 34.7876 145.235 34.755C145.544 34.7225 145.772 34.6639 145.919 34.5792C146.068 34.4913 146.165 34.366 146.207 34.2032C146.249 34.0372 146.27 33.8224 146.27 33.5587ZM138.985 36.9181C138.985 36.394 139.08 35.992 139.268 35.712C139.457 35.4321 139.703 35.2612 140.006 35.1993C139.706 35.144 139.46 34.9829 139.268 34.7159C139.08 34.449 138.985 34.0633 138.985 33.5587C138.985 33.1323 139.032 32.7807 139.127 32.504C139.224 32.2273 139.399 32.0109 139.649 31.8546C139.903 31.6984 140.261 31.5893 140.723 31.5275C141.186 31.4624 141.783 31.4298 142.515 31.4298H143.678C144.41 31.4298 145.007 31.4624 145.47 31.5275C145.932 31.5893 146.288 31.6984 146.539 31.8546C146.793 32.0109 146.967 32.2273 147.061 32.504C147.159 32.7807 147.208 33.1323 147.208 33.5587C147.208 34.0633 147.112 34.449 146.92 34.7159C146.731 34.9829 146.487 35.144 146.187 35.1993C146.49 35.2612 146.736 35.4321 146.925 35.712C147.113 35.992 147.208 36.394 147.208 36.9181C147.208 37.3575 147.165 37.727 147.081 38.0265C146.999 38.3227 146.84 38.5603 146.602 38.7394C146.365 38.9184 146.021 39.047 145.572 39.1251C145.123 39.2032 144.532 39.2423 143.8 39.2423H142.393C141.661 39.2423 141.07 39.2032 140.621 39.1251C140.172 39.047 139.828 38.9184 139.591 38.7394C139.353 38.5603 139.192 38.3227 139.107 38.0265C139.026 37.727 138.985 37.3575 138.985 36.9181ZM146.27 36.9181C146.27 36.6284 146.248 36.3956 146.202 36.2198C146.156 36.0441 146.054 35.9106 145.894 35.8195C145.735 35.7283 145.487 35.6681 145.152 35.6388C144.817 35.6062 144.358 35.59 143.775 35.59H142.418C141.835 35.59 141.376 35.6062 141.041 35.6388C140.706 35.6681 140.458 35.7283 140.299 35.8195C140.139 35.9106 140.037 36.0441 139.991 36.2198C139.945 36.3956 139.923 36.6284 139.923 36.9181C139.923 37.2436 139.945 37.5057 139.991 37.7042C140.04 37.9028 140.146 38.0558 140.308 38.1632C140.471 38.2674 140.722 38.339 141.06 38.3781C141.399 38.4139 141.86 38.4318 142.442 38.4318H143.751C144.333 38.4318 144.794 38.4139 145.133 38.3781C145.471 38.339 145.722 38.2674 145.885 38.1632C146.047 38.0558 146.151 37.9028 146.197 37.7042C146.246 37.5057 146.27 37.2436 146.27 36.9181Z" fill="#00999E"/>
</svg>
